<svg xmlns="http://www.w3.org/2000/svg" width="100" height="100" viewBox="0 0 100 100" version="1.0">
  <g id="layer1">
    <path d="m 53.25,21.417042 0,9.625567 c -2.93693,-2.862008 -6.075356,-5.001021 -9.415281,-6.417045 -3.31123,-1.415906 -6.838359,-2.123889 -10.581397,-2.123951 -7.371014,6.2e-5 -13.01442,2.365026 -16.930233,7.094901 -3.91585,4.699855 -5.873767,11.508541 -5.873754,20.426081 -1.3e-5,8.887478 1.957904,15.696164 5.873754,20.426081 3.915813,4.699814 9.559219,7.049714 16.930233,7.04971 3.743038,4e-6 7.270167,-0.707977 10.581397,-2.123951 3.339925,-1.415958 6.478351,-3.55497 9.415281,-6.417045 l 0,9.535185 c -3.052103,2.169144 -6.291302,3.796 -9.717607,4.880572 C 40.134786,84.457712 36.535674,85 32.735049,85 22.974226,85 15.286526,81.881861 9.671928,75.645576 4.0573014,69.379182 1.2499958,60.838198 1.25,50.022595 1.2499958,39.176933 4.0573014,30.635946 9.671928,24.399613 15.286526,18.13327 22.974226,15.000067 32.735049,15 c 3.858212,6.7e-5 7.486114,0.542352 10.883721,1.626856 3.426308,1.054511 6.636713,2.651237 9.63123,4.790186" fill="#000"></path>
    <text x="20.829472" y="56.990562" fontsize="33.2053" fontfamily="Bitstream Vera Sans, Arial, sans-serif" fill="#000" transform="scale(0.92417128,1.0820505)">
      /C++
    </text>
  </g>
</svg>